<svg width="441" height="669" viewBox="0 0 441 669" fill="none" xmlns="http://www.w3.org/2000/svg">
<ellipse cx="220.529" cy="608.381" rx="220.471" ry="60.3778" fill="#4CC16A"/>
<ellipse cx="220.529" cy="304.663" rx="220.471" ry="303.719" fill="white"/>
<path d="M200.676 5.45927C203.011 5.88809 204.05 6.81293 205.315 8.67345C206.237 10.0286 206.939 12.3111 206.939 13.9089C206.939 16.4041 208.009 20.161 205.216 21.4307C203.399 22.2567 201.862 24.6722 203.227 26.5337C203.979 27.5581 204.373 27.9213 205.448 28.555C206.311 29.0641 209.217 31.0631 209.308 32.0674C209.594 35.2197 208.383 38.5867 206.475 41.0472C205.487 42.3215 205.753 42.6711 207.568 43.2673C212.082 44.7498 216.844 45.4612 221.386 46.8956C224.329 47.825 224.236 53.3362 224.236 55.7926C224.236 57.9228 223.632 60.6844 225.428 62.1216" stroke="#8A8A8A" stroke-linecap="round" stroke-linejoin="round"/>
<path d="M290.658 21.6636C289.685 24.4759 289.084 27.492 287.914 30.221C286.677 33.1065 284.312 35.4054 282.317 37.7627C279.876 40.647 278.627 42.6681 274.624 42.6681C270.835 42.6681 272.236 48.9113 270.237 51.2902C268.032 53.9153 264.42 50.8364 262.069 50.8364C260.519 50.8364 259.042 51.0947 258.287 49.6695C257.718 48.5935 255.079 49.7061 254.441 49.9721C251.925 51.0203 250.112 52.6995 249.038 55.1151" stroke="#8A8A8A" stroke-linecap="round" stroke-linejoin="round"/>
<path d="M275.712 16.5779C273.002 21.5633 269.469 32.5872 277.459 34.8701C278.864 35.2713 276.823 37.3267 276.755 37.6322C276.299 39.6829 277.294 40.781 278.248 42.4519" stroke="#8A8A8A" stroke-linecap="round" stroke-linejoin="round"/>
</svg>
